<!-- <svg width="1196" height="1294" viewBox="0 0 1196 1294" fill="none" xmlns="http://www.w3.org/2000/svg">
<path d="M211.362 0C347.459 0 390.648 122.579 395.23 183.868V611.747C395.23 728.598 404.853 898.719 580.816 898.719C756.779 898.719 801.916 757.81 802.489 687.356C803.372 578.71 829.484 462.968 1003.1 462.968C1185.25 462.968 1210.89 693.657 1183.97 819.673C1154.19 977.765 991.855 1293.95 580.816 1293.95C169.777 1293.95 0 977.765 0 716.569V199.333C0 116.851 41.2414 0 211.362 0Z" fill="#61A9FF"/>
<circle cx="1001.82" cy="194.178" r="194.178" fill="#61A9FF"/>
</svg> -->
<svg version="1.0" xmlns="http://www.w3.org/2000/svg"
 width="1196.000000pt" height="1294.000000pt" viewBox="0 0 1196.000000 1294.000000"
 preserveAspectRatio="xMidYMid meet">

<g transform="translate(0.000000,1294.000000) scale(0.398667,-2.053968)"
fill="#000000" stroke="none">
<path d="M191 399 c-50 -10 -71 -24 -71 -50 0 -26 30 -39 116 -49 115 -12 132
-45 24 -45 -41 0 -63 5 -77 18 -20 17 -73 24 -73 9 0 -13 32 -39 58 -47 37
-11 161 -8 192 5 33 14 45 37 29 56 -14 17 -73 34 -121 34 -20 0 -49 5 -65 11
-27 10 -27 11 -9 25 29 20 89 18 119 -6 24 -19 77 -28 77 -12 -1 42 -107 69
-199 51z"/>
<path d="M459 329 l-24 -20 35 5 c19 3 49 8 66 11 20 5 34 2 42 -8 10 -12 3
-15 -48 -20 -34 -4 -70 -11 -80 -17 -25 -13 -26 -37 -2 -44 29 -9 242 -5 242
5 0 5 -9 9 -20 9 -16 0 -20 7 -20 34 0 49 -28 66 -106 66 -48 0 -67 -5 -85
-21z"/>
<path d="M725 336 c-11 -8 -16 -20 -12 -29 6 -17 21 -22 100 -32 26 -3 47 -10
47 -16 0 -13 -84 -11 -97 2 -6 6 -23 9 -39 7 l-29 -3 27 -18 c31 -22 142 -26
177 -8 46 25 9 61 -64 61 -39 0 -65 8 -65 21 0 12 77 11 85 -1 3 -5 21 -10 38
-10 l32 1 -24 19 c-28 24 -146 28 -176 6z"/>
<path d="M979 329 l-24 -20 40 6 c71 10 98 10 102 -1 2 -7 -18 -14 -53 -18
-31 -3 -65 -11 -75 -17 -24 -12 -25 -36 -1 -43 29 -9 242 -5 242 5 0 5 -9 9
-20 9 -16 0 -20 7 -20 34 0 49 -28 66 -106 66 -48 0 -67 -5 -85 -21z"/>
<path d="M2190 338 c-34 -18 -40 -72 -10 -88 11 -6 25 -8 30 -5 6 3 10 1 10
-4 0 -7 29 -11 77 -11 92 0 90 12 -3 16 -36 1 -70 6 -76 12 -6 6 -17 8 -24 5
-8 -3 -14 0 -14 6 0 6 38 11 102 13 59 2 103 7 105 13 2 6 -3 20 -11 30 -11
16 -29 20 -88 23 -47 2 -82 -2 -98 -10z"/>
</g>
</svg>